# Blender v3.1.2 OBJ File: ''
# www.blender.org
mtllib Star.mtl
o Star_Circle.001
v 0.000000 0.000000 0.000000
v 0.000000 0.000000 0.000000
v 0.000000 0.000000 0.000000
v 0.000000 0.000000 0.000000
v 0.000000 0.000000 0.000000
v 0.000000 0.000000 0.000000
v 0.000000 0.000000 0.000000
v 0.000000 0.000000 0.000000
v 0.000000 0.000000 0.000000
v -0.187811 0.128354 -0.187811
v 0.000000 0.128354 -1.000000
v -1.000000 0.128354 0.000000
v -0.187811 0.128354 0.187811
v 0.000000 0.128354 1.000000
v 0.187811 0.128354 0.187811
v 1.000000 0.128354 -0.000000
v 0.187811 0.128354 -0.187811
v 0.000000 0.258090 0.000000
v 0.000000 0.258090 0.000000
v 0.000000 0.258090 0.000000
v 0.000000 0.258090 0.000000
v 0.000000 0.258090 0.000000
v 0.000000 0.258090 0.000000
v 0.000000 0.258090 0.000000
v 0.000000 0.258090 0.000000
v 0.000000 0.258090 0.000000
vt 0.500000 0.500000
vt 0.146447 0.853553
vt 0.500000 1.000000
vt 0.000000 0.500000
vt 0.146447 0.146447
vt 0.500000 0.000000
vt 0.853553 0.146447
vt 1.000000 0.500000
vt 0.853553 0.853553
vt 0.853553 0.853553
vt 0.500000 1.000000
vt 0.500000 1.000000
vt 0.853553 0.853553
vt 0.146447 0.853553
vt 0.000000 0.500000
vt 0.000000 0.500000
vt 0.146447 0.853553
vt 0.146447 0.146447
vt 0.146447 0.146447
vt 0.500000 0.000000
vt 0.500000 0.000000
vt 0.853553 0.146447
vt 0.853553 0.146447
vt 1.000000 0.500000
vt 1.000000 0.500000
vt 0.500000 0.500000
vn 0.0000 -1.0000 0.0000
vn 0.0000 1.0000 0.0000
vn 0.4862 0.8666 -0.1124
vn -0.1124 0.8666 -0.4862
vn -0.1124 0.8666 0.4862
vn -0.4862 0.8666 0.1124
vn 0.4862 0.8666 0.1124
vn -0.4862 0.8666 -0.1124
vn 0.1124 0.8666 0.4862
vn 0.1124 0.8666 -0.4862
vn -0.4823 -0.8689 0.1115
vn -0.1115 -0.8689 0.4823
vn -0.1115 -0.8689 -0.4823
vn 0.4823 -0.8689 -0.1115
vn 0.1115 -0.8689 -0.4823
vn 0.1115 -0.8689 0.4823
vn -0.4823 -0.8689 -0.1115
vn 0.4823 -0.8689 0.1115
vn 0.0000 -0.2510 -0.9680
vn 0.0000 0.2510 0.9680
usemtl None
s off
f 1/1/1 3/2/1 2/3/1
f 1/1/2 4/4/2 3/2/2
f 1/1/1 5/5/1 4/4/1
f 1/1/2 6/6/2 5/5/2
f 1/1/1 7/7/1 6/6/1
f 1/1/2 8/8/2 7/7/2
f 1/1/1 9/9/1 8/8/1
f 1/1/2 2/3/2 9/9/2
f 17/10/3 11/11/3 19/12/3 26/13/3
f 10/14/4 12/15/4 21/16/4 18/17/4
f 12/15/5 13/18/5 22/19/5 21/16/5
f 13/18/6 14/20/6 23/21/6 22/19/6
f 14/20/7 15/22/7 24/23/7 23/21/7
f 11/11/8 10/14/8 18/17/8 19/12/8
f 15/22/9 16/24/9 25/25/9 24/23/9
f 16/24/10 17/10/10 26/13/10 25/25/10
f 5/5/11 6/6/11 14/20/11 13/18/11
f 4/4/12 5/5/12 13/18/12 12/15/12
f 3/2/13 4/4/13 12/15/13 10/14/13
f 9/9/14 2/3/14 11/11/14 17/10/14
f 8/8/15 9/9/15 17/10/15 16/24/15
f 7/7/16 8/8/16 16/24/16 15/22/16
f 2/3/17 3/2/17 10/14/17 11/11/17
f 6/6/18 7/7/18 15/22/18 14/20/18
f 20/26/2 19/12/2 18/17/2
f 20/26/1 18/17/1 21/16/1
f 20/26/2 21/16/2 22/19/2
f 20/26/19 22/19/19 23/21/19
f 20/26/20 23/21/20 24/23/20
f 20/26/1 24/23/1 25/25/1
f 20/26/2 25/25/2 26/13/2
f 20/26/1 26/13/1 19/12/1
